<?xml version="1.0" encoding="UTF-8"?><svg id="Capa_1" xmlns="http://www.w3.org/2000/svg" viewBox="0 0 525 524"><path d="M73.95,382.58c-30.12-37.23-47.95-83.61-47.95-133.86,0-122.41,105.87-221.72,236.5-221.72s236.5,99.31,236.5,221.72-105.87,221.72-236.5,221.72c-33.72,0-65.78-6.65-94.78-18.48l-107.53,46.1c-3.42,1.48-6.93,1.94-10.62,1.94-13.03,0-23.56-10.53-23.56-23.56,0-3.97,1.02-7.85,2.86-11.27,0,0,45.08-82.59,45.08-82.59ZM108.41,354.68c11.27,13.95,13.03,33.35,4.43,49.15l-16.63,30.58,54.04-23.19c10.9-4.71,23.28-4.8,34.27-.28,23.74,9.7,50.07,15.15,77.88,15.15,108.83,0,192.16-82.04,192.16-177.38s-83.24-177.38-192.06-177.38S70.34,153.38,70.34,248.72c0,39.54,13.95,76.12,38.06,105.96Z" fill="#fff"/></svg>