<?xml version="1.0" encoding="UTF-8"?><svg id="Capa_1" xmlns="http://www.w3.org/2000/svg" viewBox="0 0 34.9 11.48"><polyline points=".59 9.37 1.47 8.61 2.7 8.9 7.24 3.86" fill="none" stroke="#184353" stroke-linejoin="round" stroke-width=".7"/><path d="M6.65,6.12l-1.8.82c-.21.1-.46-.06-.46-.29v-1.67c0-.24.25-.39.47-.29l1.79.84c.25.12.25.47,0,.58Z" fill="#27c8bc"/><path d="M14.69,7.43h-.77v-1.38h-1.41v1.38h-.76v-3.39h.76v1.35h1.41v-1.35h.77v3.39Z" fill="#27c8bc"/><path d="M17.44,7.43h-.71v-.35h0c-.16.27-.4.41-.72.41-.23,0-.42-.07-.55-.2s-.2-.31-.2-.53c0-.47.28-.74.83-.81l.66-.09c0-.27-.14-.4-.43-.4s-.56.09-.82.26v-.56c.1-.05.25-.1.43-.14s.34-.06.49-.06c.69,0,1.04.34,1.04,1.03v1.45ZM16.74,6.44v-.16l-.44.06c-.24.03-.36.14-.36.33,0,.08.03.15.09.21.06.05.14.08.24.08.14,0,.25-.05.34-.15.09-.1.13-.22.13-.37Z" fill="#27c8bc"/><path d="M20.41,7.43h-.75v-1.35c0-.38-.13-.56-.4-.56-.13,0-.24.05-.32.15-.08.1-.12.23-.12.38v1.38h-.75v-2.42h.75v.38h0c.18-.29.44-.44.78-.44.54,0,.8.33.8,1v1.48Z" fill="#27c8bc"/><path d="M22.5,7.4c-.11.06-.28.09-.5.09-.53,0-.79-.27-.79-.82v-1.11h-.39v-.55h.39v-.52l.75-.21v.74h.54v.55h-.54v.98c0,.25.1.38.3.38.08,0,.16-.02.24-.07v.55Z" fill="#27c8bc"/><path d="M23.31,4.62c-.13,0-.23-.04-.31-.11-.08-.07-.12-.17-.12-.28s.04-.2.12-.27c.08-.07.18-.11.31-.11s.23.04.31.11c.08.07.12.16.12.27s-.04.21-.12.28c-.08.07-.18.11-.31.11ZM23.68,6.61c0,.1.02.18.07.23s.11.08.2.08c.04,0,.08,0,.12-.01l.12-.02v.52c-.09.02-.19.04-.29.06-.1.02-.21.02-.31.02-.1,0-.19-.02-.27-.05-.08-.03-.15-.08-.21-.14-.06-.06-.1-.14-.13-.23-.03-.09-.05-.19-.05-.3v-1.77h.74v1.6Z" fill="#27c8bc"/><path d="M25.3,7.15h0v1.4h-.75v-3.54h.75v.36h0c.18-.28.44-.42.78-.42.31,0,.56.11.73.32.17.22.26.51.26.88,0,.4-.1.73-.3.97s-.46.37-.8.37c-.29,0-.51-.11-.67-.34ZM25.28,6.15v.19c0,.17.04.3.13.41.09.11.2.16.35.16.17,0,.3-.07.4-.2s.14-.32.14-.56c0-.43-.17-.64-.5-.64-.15,0-.28.06-.38.17-.1.12-.15.27-.15.46Z" fill="#27c8bc"/><path d="M29.55,7.43h-.71v-.35h0c-.16.27-.4.41-.72.41-.23,0-.42-.07-.55-.2s-.2-.31-.2-.53c0-.47.28-.74.83-.81l.66-.09c0-.27-.14-.4-.43-.4s-.56.09-.82.26v-.56c.1-.05.25-.1.43-.14s.34-.06.49-.06c.69,0,1.04.34,1.04,1.03v1.45ZM28.84,6.44v-.16l-.44.06c-.24.03-.36.14-.36.33,0,.08.03.15.09.21.06.05.14.08.24.08.14,0,.25-.05.34-.15.09-.1.13-.22.13-.37Z" fill="#27c8bc"/><path d="M30.9,6.61c0,.1.02.18.07.23s.11.08.2.08c.04,0,.08,0,.12-.01l.12-.02v.52c-.09.02-.19.04-.29.06-.1.02-.21.02-.31.02-.1,0-.19-.02-.27-.05-.08-.03-.15-.08-.21-.14-.06-.06-.1-.14-.13-.23-.03-.09-.05-.19-.05-.3v-2.93h.74v2.77Z" fill="#27c8bc"/><path d="M33.78,7.43h-.71v-.35h0c-.16.27-.4.41-.72.41-.23,0-.42-.07-.55-.2s-.2-.31-.2-.53c0-.47.28-.74.83-.81l.66-.09c0-.27-.14-.4-.43-.4s-.56.09-.82.26v-.56c.1-.05.25-.1.43-.14s.34-.06.49-.06c.69,0,1.04.34,1.04,1.03v1.45ZM33.07,6.44v-.16l-.44.06c-.24.03-.36.14-.36.33,0,.08.03.15.09.21.06.05.14.08.24.08.14,0,.25-.05.34-.15.09-.1.13-.22.13-.37Z" fill="#27c8bc"/><circle cx="1.73" cy="9.94" r=".41" fill="#27c8bc"/><rect x="3.79" y="2.14" width=".72" height=".97" rx=".04" ry=".04" fill="#27c8bc"/><rect x="2.45" y="1.4" width=".72" height="1.7" rx=".04" ry=".04" fill="#27c8bc"/><rect x="3.12" y="2.9" width=".72" height=".86" rx=".04" ry=".04" fill="#27c8bc"/><polyline points="9.16 4.24 9.1 4.32 8.37 4.41 6.76 2.95" fill="none" stroke="#184353" stroke-linejoin="round" stroke-width=".7"/><path d="M4.18,8.81c.38.22.7.5,1.17.73,2.24-.96,3.34-1.89,3.75-3.62v-3.05l-1.05-.46" fill="none" stroke="#d47100" stroke-miterlimit="10" stroke-width=".75"/><path d="M1.63,4l.1,1.76c.17.74.46,1.32.91,1.81" fill="none" stroke="#d47100" stroke-miterlimit="10" stroke-width=".75"/><polyline points="2.69 8.9 3.12 10.1 2.45 11.05" fill="none" stroke="#184353" stroke-linejoin="round" stroke-width=".7"/><polyline points="8.08 .55 6.65 2.12 6.64 2.86 8.26 4.31" fill="none" stroke="#184353" stroke-linejoin="round" stroke-width=".7"/></svg>